#!OML:ASF F:\VICON\USERDATA\INSTALL\rory3\rory3.ASF
:FULLY-SPECIFIED
:DEGREES
1772
root -0.875905 16.4087 -4.12875 8.96339 -2.02016 0.578561
lowerback 23.4532 -1.40439 -3.58162
upperback 3.76679 -2.75998 -0.506941
thorax -8.77467 -1.20861 2.32594
lowerneck -14.2218 -3.61909 -7.34798
upperneck 0.0599274 -4.03725 9.18602
head 2.64675 -1.68765 3.7347
rclavicle -8.15017e-015 8.34896e-015
rhumerus -13.0909 -10.0956 -48.7191
rradius 97.8291
rwrist 22.9809
rhand -45.124 7.52081
rfingers 7.12502
rthumb -17.903 -21.6751
lclavicle -8.15017e-015 8.34896e-015
lhumerus -17.5179 5.12572 49.8575
lradius 86.3438
lwrist 10.2687
lhand -42.8497 9.02788
lfingers 7.12502
lthumb -15.7136 38.4099
rfemur -46.6466 -9.77638 10.2871
rtibia 67.1972
rfoot -25.1052 -12.9802
rtoes -6.41891
lfemur -46.5854 14.1776 -17.4326
ltibia 70.0158
lfoot -27.3323 11.922
ltoes -9.75729
1773
root -0.871552 16.3164 -4.15613 8.98544 -1.85254 0.545956
lowerback 23.6549 -1.43307 -3.51596
upperback 3.79944 -2.78463 -0.47995
thorax -8.84478 -1.21973 2.33253
lowerneck -14.0166 -3.64459 -7.35457
upperneck -0.168262 -4.06865 9.16276
head 2.54823 -1.7114 3.72916
rclavicle 1.98785e-015 -1.19271e-015
rhumerus -13.0002 -10.0577 -48.6861
rradius 97.7702
rwrist 24.8407
rhand -44.7768 7.59159
rfingers 7.12502
rthumb -17.5689 -21.6346
lclavicle 1.98785e-015 -1.19271e-015
lhumerus -17.2618 4.91053 50.0191
lradius 86.3489
lwrist 10.2693
lhand -42.7726 9.18051
lfingers 7.12502
lthumb -15.6393 38.5684
rfemur -47.3838 -10.0948 10.3275
rtibia 68.2938
rfoot -25.3941 -12.8061
rtoes -6.57034
lfemur -47.4097 14.1414 -17.4264
ltibia 71.1228
lfoot -27.6839 11.8416
ltoes -9.72359
1774
root -0.866638 16.2241 -4.18506 9.04214 -1.65675 0.501372
lowerback 23.8309 -1.49912 -3.4265
upperback 3.84566 -2.8506 -0.461022
thorax -8.88524 -1.25215 2.3279
lowerneck -14.0729 -3.66929 -7.24991
upperneck -0.228296 -4.10817 9.07258
head 2.53733 -1.73359 3.68122
rclavicle 1.94809e-014 -6.36111e-015
rhumerus -12.8882 -9.92903 -48.6894
rradius 97.7316
rwrist 26.3514
rhand -44.2025 6.82863
rfingers 7.12502
rthumb -17.0161 -22.4461
lclavicle 1.94809e-014 -6.36111e-015
lhumerus -16.9321 4.80922 50.1238
lradius 86.2929
lwrist 10.2857
lhand -42.6765 9.2102
lfingers 7.12502
lthumb -15.5468 38.6053
rfemur -48.1588 -10.4136 10.3773
rtibia 69.3734
rfoot -25.653 -12.6508
rtoes -6.85859
lfemur -48.2724 14.0631 -17.4147
ltibia 72.2077
lfoot -27.9761 11.8161
ltoes -9.85434
1775
root -0.859353 16.1372 -4.2102 9.02468 -1.50871 0.525342
lowerback 24.0036 -1.555 -3.39903
upperback 3.9489 -2.9202 -0.475437
thorax -8.85874 -1.28733 2.32163
lowerneck -14.3368 -3.67958 -7.10434
upperneck -0.126414 -4.13154 8.9662
head 2.60463 -1.74182 3.62007
rclavicle -1.66979e-014 3.97569e-016
rhumerus -12.6893 -9.7274 -48.7279
rradius 97.7091
rwrist 27.2287
rhand -43.3455 6.00432
rfingers 7.12502
rthumb -16.1911 -23.3395
lclavicle -1.66979e-014 3.97569e-016
lhumerus -16.5374 4.78625 50.2014
lradius 86.1511
lwrist 10.3535
lhand -42.6326 9.05201
lfingers 7.12502
lthumb -15.5046 38.4504
rfemur -48.8117 -10.7024 10.3104
rtibia 70.4386
rfoot -25.9242 -12.5183
rtoes -7.3737
lfemur -48.9936 14.0644 -17.4935
ltibia 73.2649
lfoot -28.3069 11.7663
ltoes -9.91486
